<svg width="71" height="70" viewBox="0 0 71 70" fill="none" xmlns="http://www.w3.org/2000/svg">
<path fill-rule="evenodd" clip-rule="evenodd" d="M58.3325 60.5598C52.2264 65.729 44.2881 68.8524 35.6101 68.8524C16.3326 68.8524 0.705078 53.4393 0.705078 34.4262C0.705078 15.4131 16.3326 0 35.6101 0C54.8875 0 70.5152 15.4131 70.5152 34.4262C70.5152 43.8174 66.7025 52.3303 60.5205 58.5414V58.8075C60.5205 63.7135 64.5674 67.7049 69.5416 67.7049C70.1841 67.7049 70.7051 68.2186 70.7051 68.8524C70.7052 69.4864 70.1843 70 69.5418 70C63.8886 70 59.1877 65.902 58.3325 60.5598ZM8.0568 25.5965C6.508 30.298 9.11669 35.3475 13.8834 36.8752C18.6502 38.4028 23.77 35.8299 25.3189 31.1284C26.8678 26.4269 24.259 21.3772 19.4923 19.8496C14.7255 18.3221 9.6056 20.895 8.0568 25.5965ZM31.2577 55.5628C34.2038 51.5635 33.3048 45.9659 29.2499 43.0603C25.195 40.1546 19.5196 41.0411 16.5735 45.0405C13.6274 49.0398 14.5263 54.6375 18.5813 57.543C22.6362 60.4487 28.3116 59.5622 31.2577 55.5628ZM26.5347 14.8032C26.5347 19.7467 30.5978 23.7541 35.6101 23.7541C40.6223 23.7541 44.6854 19.7467 44.6854 14.8032C44.6854 9.85975 40.6223 5.85238 35.6101 5.85238C30.5978 5.85238 26.5347 9.85975 26.5347 14.8032ZM52.639 57.5429C56.6938 54.6373 57.5927 49.0396 54.6468 45.0404C51.7007 41.0411 46.0253 40.1546 41.9704 43.0601C37.9154 45.9658 37.0165 51.5633 39.9626 55.5626C42.9087 59.5619 48.5841 60.4484 52.639 57.5429ZM57.3365 36.8752C62.1034 35.3475 64.712 30.298 63.1632 25.5965C61.6144 20.895 56.4944 18.3222 51.7277 19.8496C46.961 21.3773 44.3523 26.4269 45.9011 31.1284C47.4499 35.8299 52.5698 38.4027 57.3365 36.8752ZM35.6101 39.2458C38.3089 39.2458 40.4967 37.088 40.4967 34.4262C40.4967 31.7644 38.3089 29.6066 35.6101 29.6066C32.9112 29.6066 30.7234 31.7644 30.7234 34.4262C30.7234 37.088 32.9112 39.2458 35.6101 39.2458Z" fill="url(#paint0_linear_2_16)"/>
<defs>
<linearGradient id="paint0_linear_2_16" x1="22.1111" y1="5.36655e-07" x2="70.7051" y2="70" gradientUnits="userSpaceOnUse">
<stop stop-color="#522CF7"/>
<stop offset="0.74175" stop-color="#8623CF"/>
<stop offset="1" stop-color="#9322C6"/>
</linearGradient>
</defs>
</svg>
