<svg width="32" height="32" viewBox="0 0 32 32" fill="none" xmlns="http://www.w3.org/2000/svg">
<path fill-rule="evenodd" clip-rule="evenodd" d="M26.344 27.6845C23.5526 30.0475 19.9236 31.4754 15.9566 31.4754C7.14399 31.4754 0 24.4294 0 15.7377C0 7.046 7.14399 0 15.9566 0C24.7691 0 31.9132 7.046 31.9132 15.7377C31.9132 20.0308 30.1702 23.9224 27.3442 26.7618V26.8834C27.3442 29.1262 29.1942 30.9508 31.4681 30.9508C31.7619 30.9508 32 31.1856 32 31.4754C32.0001 31.7652 31.7619 32 31.4682 32C28.8839 32 26.7349 30.1266 26.344 27.6845ZM3.36079 11.7013C2.65276 13.8505 3.84531 16.1589 6.02439 16.8572C8.20346 17.5556 10.5439 16.3794 11.252 14.2301C11.9601 12.0809 10.7675 9.77244 8.58843 9.07412C6.40935 8.37581 4.06881 9.552 3.36079 11.7013ZM13.9669 25.4001C15.3137 23.5719 14.9027 21.013 13.0491 19.6847C11.1954 18.3564 8.60091 18.7616 7.25413 20.5899C5.90734 22.4182 6.31829 24.9771 8.17197 26.3054C10.0256 27.6337 12.6201 27.2284 13.9669 25.4001ZM11.8078 6.76719C11.8078 9.02706 13.6653 10.859 15.9566 10.859C18.2479 10.859 20.1053 9.02706 20.1053 6.76719C20.1053 4.50731 18.2479 2.67537 15.9566 2.67537C13.6653 2.67537 11.8078 4.50731 11.8078 6.76719ZM23.7412 26.3053C25.5948 24.9771 26.0058 22.4181 24.6591 20.5899C23.3123 18.7616 20.7178 18.3564 18.8641 19.6846C17.0105 21.0129 16.5995 23.5718 17.9463 25.4001C19.2931 27.2283 21.8875 27.6336 23.7412 26.3053ZM25.8887 16.8572C28.0678 16.1589 29.2603 13.8505 28.5523 11.7013C27.8442 9.552 25.5037 8.37587 23.3246 9.07412C21.1455 9.7725 19.953 12.0809 20.661 14.2301C21.3691 16.3794 23.7096 17.5555 25.8887 16.8572ZM15.9566 17.9409C17.1903 17.9409 18.1905 16.9545 18.1905 15.7377C18.1905 14.5209 17.1903 13.5344 15.9566 13.5344C14.7228 13.5344 13.7227 14.5209 13.7227 15.7377C13.7227 16.9545 14.7228 17.9409 15.9566 17.9409Z" fill="#522CF7"/>
</svg>
